# xmcd CD database file
#
# Track frame offsets:
#	150
#	12453
#	25996
#	36203
#	47791
#	61359
#	70532
#	86530
#	98565
#	109575
#	120223
#	129431
#	147326
#	162839
#	175735
#	184992
#
# Disc length: 2629 seconds
#
# Revision: 0
# Processed by: cddbd v1.5.2PL0 Copyright (c) Steve Scherf et al.
# Submitted via: CDex 1.70beta2
#
DISCID=cc0a4310
DTITLE=Sedivaci - Vandrkara
DYEAR=1900
DGENRE=Trampska
TTITLE0=Zatoulas
TTITLE1=Dobrej den
TTITLE2=Sny o toulani
TTITLE3=Nemuze byt kazdy jako ja
TTITLE4=Vinecko
TTITLE5=Hezky holky
TTITLE6=Nezapomen mi o tom rict
TTITLE7=Cernej Jack
TTITLE8=Kazdej to zna
TTITLE9=Starej cvok
TTITLE10=Vandrkara
TTITLE11=Homo tramp
TTITLE12=A tak dal
TTITLE13=Orinoko
TTITLE14=Pohadka
TTITLE15=Jasna vec
EXTD=
EXTT0=
EXTT1=
EXTT2=
EXTT3=
EXTT4=
EXTT5=
EXTT6=
EXTT7=
EXTT8=
EXTT9=
EXTT10=
EXTT11=
EXTT12=
EXTT13=
EXTT14=
EXTT15=
PLAYORDER=
